<svg width="359" height="251" viewBox="0 0 359 251" fill="none" xmlns="http://www.w3.org/2000/svg">
<path d="M49.3037 224.122H24.6514L24.6514 103.902H49.3037L49.3037 224.122Z" fill="#50A9E6"/>
<path d="M49.3059 139.812H87.8252V220.999H49.3059V139.812Z" fill="#50A9E6"/>
<path d="M49.3049 103.902H29.2749V96.0956H49.3049V103.902Z" fill="#50A9E6"/>
<path d="M49.3047 99.2185H33.897V91.412H49.3047V99.2185Z" fill="#50A9E6"/>
<path d="M49.3025 91.4114H35.4355V83.6049H49.3025V91.4114Z" fill="#50A9E6"/>
<path d="M154.078 224.122H127.885L127.885 103.902H154.078V224.122Z" fill="#DBCDFE"/>
<path d="M83.201 220.999H57.0078L57.0078 64.8698H83.201L83.201 220.999Z" fill="#50A9E6"/>
<path d="M204.923 220.999H152.537V175.722H204.923V220.999Z" fill="#DBCDFE"/>
<path d="M138.669 224.122H86.2827L86.2827 46.1341H138.669L138.669 224.122Z" fill="#50A9E6"/>
<path d="M154.076 103.902H132.505V96.0956H154.076V103.902Z" fill="#DBCDFE"/>
<path d="M154.077 99.2185H138.669V91.412H154.077V99.2185Z" fill="#DBCDFE"/>
<path d="M154.077 91.4114H140.21V83.6049H154.077V91.4114Z" fill="#DBCDFE"/>
<path d="M204.923 224.122H178.729L178.729 103.902H204.923V224.122Z" fill="#DBCDFE"/>
<path d="M152.536 125.76H178.729V224.121H152.536V125.76Z" fill="#DBCDFE"/>
<path d="M204.922 77.3597H241.9V220.999H204.922V77.3597Z" fill="#50A9E6"/>
<path d="M201.841 103.902H180.27V96.0956H201.841V103.902Z" fill="#DBCDFE"/>
<path d="M204.922 99.2185H187.973V91.412H204.922V99.2185Z" fill="#DBCDFE"/>
<path d="M204.923 91.4114H189.516V83.6049H204.923V91.4114Z" fill="#DBCDFE"/>
<path d="M303.533 224.122H277.34V103.902H303.533V224.122Z" fill="#50A9E6"/>
<path d="M332.806 224.122H306.613V125.76H332.806V224.122Z" fill="#50A9E6"/>
<path d="M275.798 220.999H249.604V105.463H275.798V220.999Z" fill="#50A9E6"/>
<path d="M292.746 224.122H240.36V136.689H292.746V224.122Z" fill="#50A9E6"/>
<path d="M303.532 103.902H283.501V96.0956H303.532V103.902Z" fill="#50A9E6"/>
<path d="M334.348 202.263H314.318V194.457H334.348V202.263Z" fill="#DBCDFE"/>
<path d="M303.533 99.2185H288.125V91.412H303.533V99.2185Z" fill="#50A9E6"/>
<path d="M303.531 91.4114H289.665V83.6049H303.531V91.4114Z" fill="#50A9E6"/>
<path d="M192.596 139.812H157.158V132.005H192.596V139.812Z" fill="#DBCDFE"/>
<path d="M192.596 161.67H157.158V153.864H192.596V161.67Z" fill="#DBCDFE"/>
<path d="M192.596 183.528H157.158V175.722H192.596V183.528Z" fill="#DBCDFE"/>
<path d="M325.102 183.528H289.665V175.722H325.102V183.528Z" fill="#DBCDFE"/>
<path d="M325.102 202.263H289.665V194.457H325.102V202.263Z" fill="#DBCDFE"/>
<path d="M111.25 171.005C121.236 174.596 133.283 174.232 142.365 168.303C151.301 162.471 159.432 158.263 170.421 158.466C180.238 158.649 188.36 164.05 197.869 165.199C205.419 166.11 213.074 162.763 218.54 157.392C223.878 152.151 227.421 144.168 225.099 137.002C223.885 133.255 221.231 130.154 219.707 126.519C216.212 118.132 225.408 113.07 223.126 104.241C221.18 96.7313 213.081 91.3761 213.202 83.6117C213.289 77.9271 217.614 73.5227 219.137 68.2627C219.949 65.6126 220.234 62.8252 219.975 60.0626C219.715 57.3 218.916 54.6173 217.624 52.1704C215.597 48.5729 212.475 45.7367 208.726 44.0861C205.396 42.6434 201.677 42.6153 199.102 39.6567C194.514 34.3811 192.831 28.6636 186.535 24.8056C181.206 21.5394 174.168 21.3364 168.046 21.9032C161.198 22.5021 154.564 24.621 148.614 28.1096C142.665 31.5982 137.546 36.371 133.621 42.0892C130.785 45.9269 129.136 50.5306 128.883 55.318C128.81 60.6685 128.81 66.0519 125.589 70.5984C122.883 74.4189 118.541 76.6515 114.235 78.3767C109.928 80.102 105.415 81.4993 101.636 84.2082C97.8563 86.917 94.8564 91.3542 95.294 96.0412C95.6638 99.9632 98.3308 103.379 98.6837 107.297C99.3293 114.432 92.5745 119.614 88.4098 125.392C85.5386 129.497 83.8032 134.306 83.3833 139.319C82.9633 144.333 83.8743 149.369 86.0216 153.906C91.0738 164.249 100.255 166.582 109.874 170.474C110.328 170.661 110.787 170.838 111.25 171.005Z" fill="#0B2D4E"/>
<path d="M185.44 39.1382C182.031 37.2447 178.22 36.2136 174.333 36.1327C170.447 36.0181 166.564 36.4516 162.796 37.4208C155.191 39.3535 148.429 43.7766 143.559 50.0033C141.168 53.1109 139.372 56.6438 138.262 60.4202C137.272 64.207 136.843 68.1217 136.989 72.0362C137.034 75.9114 137.297 79.774 137.176 83.5898C137.132 85.4743 136.832 87.3437 136.284 89.1449C135.768 90.9108 134.715 92.4668 133.276 93.5914C131.742 94.6276 129.966 95.239 128.127 95.3651C126.259 95.5883 124.301 95.5977 122.352 95.8584C118.416 96.2196 114.608 97.4661 111.208 99.5072C109.479 100.587 108.129 102.189 107.346 104.088C106.69 106.025 106.656 108.124 107.249 110.082C107.945 111.908 108.769 113.682 109.715 115.39C110.493 117.105 110.979 118.941 111.152 120.82C111.349 124.636 110.679 128.447 109.195 131.96C107.716 135.537 106.439 139.197 105.37 142.92C104.895 144.814 104.661 146.761 104.672 148.714C104.701 150.669 105.044 152.606 105.687 154.449C106.977 158.148 109.331 161.371 112.445 163.701C109.405 161.318 107.14 158.066 105.943 154.365C104.811 150.684 104.794 146.745 105.893 143.055C107.014 139.368 108.335 135.747 109.852 132.208C111.426 128.607 112.164 124.688 112.009 120.752C111.852 118.771 111.365 116.832 110.568 115.017C109.656 113.343 108.857 111.607 108.177 109.823C107.651 108.064 107.685 106.183 108.274 104.446C108.992 102.744 110.218 101.312 111.779 100.352C115.055 98.417 118.714 97.2438 122.492 96.917C124.375 96.6719 126.298 96.6719 128.265 96.4486C130.295 96.3104 132.254 95.6341 133.945 94.4876C135.562 93.2247 136.743 91.4759 137.319 89.4915C137.892 87.594 138.203 85.6253 138.243 83.6413C138.358 79.7381 138.062 75.877 138.008 72.0347C137.851 68.2157 138.252 64.3941 139.196 60.6934C140.264 57.025 141.975 53.5815 144.248 50.5279C148.949 44.3702 155.519 39.9523 162.945 37.9563C166.654 36.91 170.488 36.3919 174.338 36.4169C178.201 36.4054 182.01 37.3389 185.44 39.1382Z" fill="#F8AA4D"/>
<path d="M137.965 124.935C137.618 133.648 139.569 140.195 147.263 144.504C153.391 147.931 160.725 149.057 167.491 149.228C178.832 149.517 191.47 146.488 199.955 138.235C201.644 136.859 202.761 134.89 203.082 132.718C203.184 130.732 202.129 128.86 202.036 126.874C201.882 123.523 204.395 120.749 205.518 117.603C207.005 113.448 205.993 108.811 204.66 104.602C203.327 100.393 201.657 96.1443 201.858 91.718C202.118 85.9787 205.448 80.967 208.113 75.9271C210.779 70.8873 212.877 64.7576 210.598 59.5179C209.797 57.7768 208.577 56.267 207.051 55.1264C205.526 53.9859 203.742 53.2509 201.864 52.9886C197.999 52.5483 194.527 57.1198 192.051 59.6397C188.725 63.0295 185.022 66.016 181.016 68.5391C175.49 72.0114 169.431 74.5719 164.235 78.5485C160.786 80.9657 158.024 84.2571 156.223 88.0943C154.528 92.4159 157.494 96.5986 153.912 100.572C151.601 103.136 148.057 104.007 145.26 105.99C139.275 110.226 138.239 118.048 137.965 124.935Z" fill="#061F33"/>
<path d="M199.669 173.953C191.543 161.317 186.487 145.807 193.547 131.54C194.085 129.999 195.196 128.731 196.643 128.007C199.912 126.914 204.346 128.09 207.188 129.773C217.049 135.607 223.081 146.596 228.62 156.369C234.375 166.518 239.371 177.094 245.155 187.233C247.667 191.24 249.671 195.551 251.12 200.065C252.33 204.154 252.232 208.527 250.839 212.556C244.348 229.472 226.495 208.751 221.064 202.49C213.269 193.508 206.119 183.971 199.669 173.953Z" fill="#F79E33"/>
<path d="M128.031 158.552C125.709 148.653 124.504 138.525 129.769 131.783C132.146 128.739 136.382 126.617 139.848 125.11C146.611 122.169 153.523 118.216 160.76 116.937C168.391 115.587 176.878 114.751 184.488 116.686C189.282 118.052 193.878 120.053 198.156 122.637C201.895 124.758 206.501 126.592 208.312 130.55C212.746 140.192 216.609 150.092 219.882 160.199C222.599 168.605 225.583 177.414 221.3 185.937C219.913 188.697 217.899 191.061 216.312 193.698C214.676 196.448 213.76 199.576 213.653 202.785C213.124 210.518 213.331 218.273 213.345 226.017C213.512 228.251 213.172 230.494 212.351 232.574C210.437 236.531 205.234 236.585 201.487 236.579L164.433 236.515C159.758 236.539 155.1 237.083 150.543 238.137C148.632 238.524 146.648 238.237 144.921 237.323C143.193 236.409 141.827 234.923 141.049 233.113C139.2 229.522 139.064 225.306 138.867 221.267C138.096 205.519 135.88 189.877 132.249 174.544C131.234 170.191 129.431 164.517 128.031 158.552Z" fill="#FFC074"/>
<path d="M154.553 126.792C151.635 121.837 150.972 115.64 154.793 110.867C156.539 108.677 159.638 108.435 162.275 108.385C167.485 108.287 172.687 108.844 177.762 110.043C182.595 111.184 187.516 113.117 189.609 118.043C190.335 119.864 190.62 121.835 190.44 123.791C190.26 125.747 189.62 127.631 188.573 129.284C186.672 132.355 183.662 134.551 180.185 135.404C174.421 136.843 168.361 136.461 162.816 134.311C159.353 132.743 156.463 130.113 154.553 126.792Z" fill="#F79E33"/>
<path d="M121.447 201.516L121.561 178.578C121.575 175.923 119.866 159.712 123.963 159.897C124.405 159.946 124.824 160.123 125.169 160.407C127.068 162.08 128.467 164.256 129.209 166.691C132.198 174.03 134.707 185.794 140.919 190.935C147.236 196.162 156.963 198.367 164.821 199.621C173.997 201.085 183.323 201.194 192.598 201.764C198.597 202.133 205.213 203.002 209.154 207.586C211.967 210.865 213.4 215.763 214.903 219.765C216.215 223.262 217.261 227.415 214.594 230.572C213.385 231.867 211.918 232.887 210.291 233.565C204.415 236.145 198.217 237.898 191.871 238.775C174.173 241.61 156.227 242.529 138.337 241.515C134.513 241.331 130.368 240.945 127.551 238.331C125.593 236.225 124.276 233.589 123.761 230.742C121.364 221.242 121.398 211.316 121.447 201.516Z" fill="#F79E33"/>
<path d="M95.0896 179.686C93.101 183.502 91.1329 187.33 89.1854 191.169C85.2487 198.975 77.9377 216.324 89.6476 220.613C95.5441 222.773 98.9153 220.662 102.815 216.086C117.656 198.645 130.19 179.319 140.102 158.596C143.81 150.853 153.661 130.675 141.698 126.065C139.805 125.348 137.781 125.058 135.766 125.215C133.751 125.372 131.794 125.972 130.031 126.973C128.426 127.949 126.942 129.116 125.609 130.447C116.981 138.641 110.83 149.211 105.362 159.932C101.978 166.561 98.5117 173.114 95.0896 179.686Z" fill="#F8AA4D"/>
<path d="M164.713 131.442C163.007 131.004 161.434 130.146 160.133 128.945C158.832 127.744 157.843 126.237 157.254 124.557C156.274 121.358 157.818 117.761 158.094 114.533C158.358 111.44 158.391 108.331 158.192 105.233C157.876 102.343 157.868 99.4266 158.168 96.5348C158.414 94.9032 159.291 95.1827 160.91 94.5348C162.587 93.9881 164.35 93.7661 166.107 93.8806C169.708 93.8899 179.094 93.623 181.321 96.847C182.187 98.3971 182.587 100.17 182.47 101.948C182.529 104.074 182.899 106.827 183.241 109.792C183.395 111.113 183.299 112.427 183.498 113.74C183.787 115.203 184.204 116.636 184.746 118.023C186.558 123.342 184.861 128.401 179.219 130.836C174.588 132.683 169.478 132.896 164.713 131.442Z" fill="#F9CBB6"/>
<path d="M161.914 96.5004C162.155 94.8891 163.023 95.1639 164.622 94.5238C166.277 93.9852 168.017 93.7669 169.751 93.8805C173.308 93.8899 182.58 93.6261 184.779 96.808C185.634 98.3396 186.029 100.092 185.914 101.848C185.971 103.949 186.336 106.668 186.674 109.598C186.828 110.903 186.731 112.202 186.926 113.501C187.123 114.605 187.421 115.688 187.815 116.736C184.319 118.067 180.509 118.309 176.876 117.43C170.698 115.798 165.372 111.832 161.991 106.344C161.972 105.929 161.961 105.512 161.934 105.095C161.622 102.239 161.615 99.3578 161.914 96.5004Z" fill="#F5AD8C"/>
<path d="M154.558 73.8319C154.527 69.0697 155.202 64.3299 156.561 59.7709C162.12 42.3063 183.353 37.9908 196.14 50.528C210.398 64.5079 204.943 97.9367 189.923 109.676C187.906 111.232 185.565 112.303 183.079 112.806C180.593 113.309 178.026 113.232 175.574 112.58C160.826 108.516 154.464 89.8836 154.558 73.8319Z" fill="#F9CBB6"/>
<path d="M154.28 60.3595C160.081 42.2672 182.238 37.7988 195.573 50.7872C198.538 53.7688 200.764 57.4192 202.069 61.4399C201.758 61.9319 201.414 62.4014 201.04 62.8451C199.1 64.9131 196.748 66.5386 194.14 67.6133C186.636 70.9532 178.75 73.3327 170.665 74.6968C170.072 74.8093 169.472 74.9217 168.882 75.0419C166.661 75.394 164.515 76.1268 162.537 77.209C157.071 80.4877 159.422 87.7102 155.417 90.8718C155.088 91.1319 154.718 91.3355 154.323 91.4745C152.866 86.0831 152.146 80.5146 152.182 74.9248C152.153 69.9903 152.861 65.0798 154.28 60.3595Z" fill="#F5AD8C"/>
<path d="M166.439 72.181C164.331 72.9037 162.363 73.9908 160.621 75.3941C155.826 79.5846 159.216 86.4293 155.82 90.2607C152.812 93.655 148.245 89.1678 147.047 86.0343C144.843 80.2575 144.971 73.8344 145.134 67.6111C145.078 64.14 145.467 60.6763 146.29 57.3065C147.417 53.7229 149.311 50.4356 151.837 47.6796C155.357 43.7573 159.702 40.6871 164.551 38.6961C169.4 36.7052 174.628 35.8444 179.85 36.1776C187.913 36.7115 202.055 43.8466 195.735 54.6539C194.187 57.0318 192.157 59.0484 189.78 60.5696C183.046 65.1429 175.766 68.832 168.115 71.5486C167.556 71.7532 166.997 71.9624 166.439 72.181Z" fill="#0B2D4E"/>
<path d="M359 250.664L0 250.664L0 219.438L359 219.438V250.664Z" fill="white"/>
<path d="M195.677 211.631H244.982V220.999H195.677V211.631Z" fill="#1A5076"/>
<path d="M237.772 212.144L250.669 145.075C250.83 144.219 251.279 143.446 251.941 142.889C252.603 142.333 253.436 142.027 254.296 142.026H340.036C340.618 142.027 341.192 142.17 341.709 142.441C342.226 142.713 342.671 143.106 343.008 143.587L343.019 143.572L346.979 148.354L343.467 147.573L330.768 213.606C330.608 214.463 330.158 215.236 329.495 215.793C328.833 216.349 328 216.655 327.14 216.656H241.4C240.853 216.655 240.313 216.531 239.819 216.293C239.326 216.055 238.89 215.708 238.545 215.279C238.199 214.847 237.951 214.344 237.818 213.804C237.684 213.265 237.67 212.702 237.775 212.156L237.772 212.144Z" fill="#1A5076"/>
<path d="M332.623 223.877H246.185C245.635 223.877 245.091 223.753 244.594 223.515C244.096 223.277 243.657 222.93 243.307 222.5C242.957 222.069 242.706 221.565 242.571 221.025C242.436 220.484 242.422 219.92 242.528 219.372L255.521 152.296C255.688 151.436 256.145 150.662 256.813 150.105C257.481 149.549 258.32 149.246 259.185 149.247H345.625C346.176 149.247 346.719 149.371 347.217 149.609C347.714 149.847 348.153 150.194 348.503 150.624C348.853 151.055 349.104 151.559 349.239 152.099C349.374 152.64 349.389 153.204 349.283 153.751L336.279 220.821C336.113 221.68 335.657 222.454 334.989 223.01C334.322 223.566 333.485 223.871 332.621 223.87L332.623 223.877Z" fill="#2773A7"/>
<path d="M304.104 182.948C303.721 184.924 302.692 186.713 301.182 188.023C299.672 189.334 297.77 190.089 295.784 190.169C294.898 190.197 294.019 190.016 293.215 189.641C292.41 189.265 291.704 188.704 291.15 188.003C290.597 187.303 290.212 186.481 290.027 185.603C289.842 184.726 289.861 183.816 290.083 182.948C290.483 180.978 291.518 179.199 293.025 177.892C294.533 176.584 296.427 175.823 298.409 175.727C299.291 175.708 300.165 175.896 300.964 176.275C301.763 176.654 302.465 177.215 303.015 177.913C303.566 178.611 303.951 179.428 304.139 180.301C304.328 181.175 304.316 182.08 304.104 182.948Z" fill="#1A5076"/>
<path d="M57.797 180.54C57.3551 179.882 57.1027 179.112 57.0679 178.317C57.033 177.522 57.2172 176.732 57.5998 176.037C58.37 174.525 59.368 173.144 60.558 171.944C61.8804 170.597 62.9737 169.038 63.7937 167.33C64.1378 166.446 64.3015 165.501 64.2751 164.552C64.2486 163.603 64.0324 162.668 63.6396 161.806C62.0988 158.326 58.9387 155.759 56.7647 153.136C55.6826 151.946 54.8841 150.519 54.4304 148.968C54.2076 148.202 54.1612 147.395 54.2947 146.608C54.4283 145.822 54.7383 145.077 55.2008 144.43C54.4017 144.913 53.7307 145.586 53.2456 146.39C52.7605 147.194 52.476 148.106 52.4166 149.047C52.3789 150.853 52.8934 152.627 53.8896 154.124C55.777 157.285 58.609 159.851 59.7106 162.626C60.0256 163.243 60.2172 163.917 60.2746 164.61C60.332 165.303 60.2539 166 60.045 166.662C59.4609 168.171 58.6839 169.595 57.7338 170.899C56.6682 172.339 55.9458 174.01 55.623 175.78C55.4798 176.702 55.61 177.647 55.997 178.494C56.384 179.342 57.0104 180.054 57.797 180.54Z" fill="white"/>
<path d="M45.2801 185.355V214.815C45.3253 216.622 46.0765 218.337 47.3687 219.584C48.6609 220.83 50.3885 221.506 52.172 221.463H64.5182C66.302 221.506 68.03 220.831 69.3225 219.584C70.615 218.338 71.3664 216.622 71.4116 214.815V185.355H45.2801Z" fill="#2773A7"/>
<path d="M44.0914 192.577C49.9956 192.577 54.7812 197.965 54.7812 204.613C54.7812 211.261 49.9956 216.649 44.0914 216.649C38.1872 216.649 33.4015 211.257 33.4015 204.613C33.4015 197.97 38.1887 192.577 44.0914 192.577ZM44.0914 212.357C45.6373 212.523 47.1965 212.21 48.5632 211.459C49.9298 210.708 51.0397 209.555 51.7461 208.152C52.4526 206.749 52.7226 205.162 52.5203 203.6C52.3181 202.038 51.6532 200.575 50.6134 199.404C49.5735 198.233 48.2077 197.409 46.6962 197.041C45.1846 196.673 43.5985 196.778 42.1471 197.342C40.6957 197.906 39.4473 198.903 38.5668 200.202C37.6862 201.5 37.2149 203.038 37.215 204.613C37.1188 206.563 37.788 208.472 39.0765 209.923C40.3651 211.374 42.168 212.249 44.0914 212.357Z" fill="#1A5076"/>
<path opacity="0.2" d="M67.8485 209.427C68.1949 209.39 68.5131 209.217 68.7352 208.945C68.9572 208.673 69.0653 208.323 69.0364 207.972V189.217C69.0653 188.866 68.9572 188.516 68.7352 188.245C68.5131 187.973 68.1949 187.799 67.8485 187.762C67.5022 187.8 67.1842 187.973 66.9622 188.245C66.7403 188.517 66.632 188.866 66.6605 189.217V207.973C66.632 208.325 66.7403 208.674 66.9623 208.945C67.1843 209.217 67.5024 209.39 67.8485 209.427Z" fill="white"/>
<path d="M50.9427 185.355V215.079C50.9316 216.76 51.5802 218.378 52.7458 219.575C53.9114 220.772 55.4986 221.451 57.1582 221.463H51.4958C49.8362 221.451 48.249 220.772 47.0834 219.575C45.9178 218.378 45.2692 216.76 45.2803 215.079V185.355H50.9427Z" fill="#1A5076"/>
<path d="M57.778 14.9084H102.46C103.737 14.9084 104.771 15.957 104.771 17.2504V18.8117C104.771 20.1051 103.737 21.1536 102.46 21.1536H57.778C56.5015 21.1536 55.4668 20.1051 55.4668 18.8117V17.2504C55.4668 15.957 56.5015 14.9084 57.778 14.9084Z" fill="white"/>
<path d="M36.2071 14.9084H46.9926C48.269 14.9084 49.3037 15.957 49.3037 17.2504V18.8117C49.3037 20.1051 48.269 21.1536 46.9926 21.1536H36.2071C34.9307 21.1536 33.896 20.1051 33.896 18.8117V17.2504C33.896 15.957 34.9307 14.9084 36.2071 14.9084Z" fill="white"/>
<path d="M80.6189 0H36.0721C34.5991 0 33.4065 1.61906 33.4019 3.61127C33.4019 5.60348 34.5991 7.2163 36.0721 7.22254H80.6189C82.0919 7.22254 83.2844 5.60348 83.2891 3.61127C83.2891 1.61906 82.0919 0 80.6189 0Z" fill="white"/>
<path d="M99.5802 0H88.3818C87.5569 0.130713 86.8138 0.579492 86.3078 1.25251C85.8019 1.92553 85.5723 2.77068 85.667 3.61127C85.5723 4.45186 85.8019 5.29701 86.3078 5.97003C86.8138 6.64305 87.5569 7.09183 88.3818 7.22254H99.5802C100.405 7.09183 101.148 6.64305 101.654 5.97003C102.16 5.29701 102.39 4.45186 102.295 3.61127C102.39 2.77068 102.16 1.92553 101.654 1.25251C101.148 0.579492 100.405 0.130713 99.5802 0Z" fill="white"/>
<path d="M71.7505 33.7005H101.95C102.775 33.5708 103.52 33.1225 104.027 32.4494C104.533 31.7762 104.764 30.9305 104.669 30.0892C104.763 29.2489 104.534 28.4041 104.028 27.7314C103.522 27.0588 102.779 26.6102 101.954 26.4795H71.7552C70.9306 26.6102 70.1877 27.0588 69.6818 27.7314C69.1759 28.4041 68.946 29.2489 69.0403 30.0892C68.9456 30.9298 69.1752 31.7749 69.6812 32.448C70.1872 33.121 70.9303 33.5698 71.7552 33.7005H71.7505Z" fill="white"/>
<path d="M155.429 205.853C154.383 205.682 153.334 205.518 152.283 205.36C147.177 204.593 142.092 203.685 137.029 202.634C127.032 200.458 116.921 198.857 106.745 197.84C105.665 197.743 104.584 197.655 103.502 197.576C98.9321 197.247 94.1419 197.139 89.9587 199.227C85.7755 201.314 82.4474 206.26 83.469 211.027C83.8979 212.643 84.6991 214.132 85.8066 215.373C86.9142 216.614 88.2965 217.571 89.84 218.165C92.8791 219.264 96.0785 219.838 99.305 219.864L130.532 221.872C135.685 222.201 140.838 222.538 145.99 222.884C150.912 223.21 155.907 223.875 160.842 223.87C163.025 223.977 165.186 223.379 167.013 222.162C169.45 220.31 170.919 216.37 171.154 213.291C171.28 212.471 171.211 211.632 170.953 210.845C170.694 210.057 170.254 209.344 169.669 208.763C168.948 208.293 168.126 208.005 167.272 207.925C163.327 207.227 159.387 206.499 155.429 205.853Z" fill="#F8AA4D"/>
<path d="M168.649 221.76C171.126 222.315 173.061 224.687 175.528 225.477C177.301 225.966 179.187 225.815 180.862 225.051C182.42 224.415 183.998 224.077 185.594 223.521C186.837 223.087 188.522 222.175 189.854 222.476C193.356 223.269 196.849 225.981 200.023 227.742C200.688 228.219 201.495 228.446 202.307 228.384C202.508 228.342 202.697 228.255 202.861 228.13C203.025 228.005 203.16 227.844 203.255 227.66C203.35 227.475 203.404 227.272 203.412 227.064C203.42 226.856 203.383 226.649 203.302 226.457C204.216 227.394 205.425 229.243 206.898 228.523C207.208 228.363 207.446 228.09 207.563 227.759C207.681 227.427 207.669 227.063 207.53 226.74C207.986 227.378 208.581 227.901 209.268 228.269C209.612 228.437 210.004 228.478 210.374 228.384C210.745 228.29 211.071 228.067 211.296 227.753C211.474 227.414 211.567 227.035 211.565 226.651C211.581 225.327 211.303 224.017 210.752 222.817C208.251 216.884 202.596 212.475 197.786 208.935C196.972 208.269 196.061 207.734 195.085 207.35C194.197 207.097 193.275 206.986 192.353 207.021C186.356 206.997 180.401 208.044 174.762 210.114C173.506 210.403 172.196 210.34 170.972 209.933C170.084 209.673 169.146 209.643 168.243 209.847C167.253 210.252 166.425 210.981 165.891 211.919C164.676 213.665 164.039 215.757 164.073 217.894C164.173 219.486 164.285 221.207 166.005 221.538C166.703 221.674 167.421 221.589 168.128 221.669C168.303 221.697 168.476 221.722 168.649 221.76Z" fill="#F9CBB6"/>
</svg>
